<svg xmlns="http://www.w3.org/2000/svg" width="309.51" height="3707.4" viewBox="0 0 309.51 3707.4">
    <g data-name="Zvjezdice grupirane _ 360">
        <path data-name="mini star" d="m21 8.2 4.9 7.4 8.6 2.4-5.5 6.9.3 8.9-8.3-3.1-8.3 3.1.3-8.9L7.5 18l8.6-2.4z" transform="translate(275.01 131.1)" style="fill:#fff;opacity:.5"/>
        <path data-name="mini star" d="m21 8.2 4.9 7.4 8.6 2.4-5.5 6.9.3 8.9-8.3-3.1-8.3 3.1.3-8.9L7.5 18l8.6-2.4z" transform="translate(.596 -8.2)" style="fill:#fff;opacity:.5"/>
        <path data-name="mini star" d="m21 8.2 4.9 7.4 8.6 2.4-5.5 6.9.3 8.9-8.3-3.1-8.3 3.1.3-8.9L7.5 18l8.6-2.4z" transform="translate(263.096 823.8)" style="fill:#fff;opacity:.5"/>
        <path data-name="mini star" d="m21 8.2 4.9 7.4 8.6 2.4-5.5 6.9.3 8.9-8.3-3.1-8.3 3.1.3-8.9L7.5 18l8.6-2.4z" transform="translate(-2.89 1167.6)" style="fill:#fff;opacity:.5"/>
        <path data-name="mini star" d="m21 8.2 4.9 7.4 8.6 2.4-5.5 6.9.3 8.9-8.3-3.1-8.3 3.1.3-8.9L7.5 18l8.6-2.4z" transform="translate(24.11 1519.6)" style="fill:#fff;opacity:.5"/>
        <path data-name="mini star" d="m21 8.2 4.9 7.4 8.6 2.4-5.5 6.9.3 8.9-8.3-3.1-8.3 3.1.3-8.9L7.5 18l8.6-2.4z" transform="translate(249.596 1750.3)" style="fill:#fff;opacity:.5"/>
        <path data-name="mini star" d="m21 8.2 4.9 7.4 8.6 2.4-5.5 6.9.3 8.9-8.3-3.1-8.3 3.1.3-8.9L7.5 18l8.6-2.4z" transform="translate(-7.5 2328.3)" style="fill:#fff;opacity:.5"/>
        <path data-name="mini star" d="m21 8.2 4.9 7.4 8.6 2.4-5.5 6.9.3 8.9-8.3-3.1-8.3 3.1.3-8.9L7.5 18l8.6-2.4z" transform="translate(232.006 2217.1)" style="fill:#fff;opacity:.5"/>
        <path data-name="mini star" d="m21 8.2 4.9 7.4 8.6 2.4-5.5 6.9.3 8.9-8.3-3.1-8.3 3.1.3-8.9L7.5 18l8.6-2.4z" transform="translate(72 1900.3)" style="fill:#fff;opacity:.5"/>
        <path data-name="mini star" d="m21 8.2 4.9 7.4 8.6 2.4-5.5 6.9.3 8.9-8.3-3.1-8.3 3.1.3-8.9L7.5 18l8.6-2.4z" transform="translate(10.61 2738.8)" style="fill:#fff;opacity:.5"/>
        <path data-name="mini star" d="m21 8.2 4.9 7.4 8.6 2.4-5.5 6.9.3 8.9-8.3-3.1-8.3 3.1.3-8.9L7.5 18l8.6-2.4z" transform="translate(152.196 3193.8)" style="fill:#fff;opacity:.5"/>
        <path data-name="mini star" d="m21 8.2 4.9 7.4 8.6 2.4-5.5 6.9.3 8.9-8.3-3.1-8.3 3.1.3-8.9L7.5 18l8.6-2.4z" transform="translate(259.006 2974.6)" style="fill:#fff;opacity:.5"/>
        <path data-name="mini star" d="m21 8.2 4.9 7.4 8.6 2.4-5.5 6.9.3 8.9-8.3-3.1-8.3 3.1.3-8.9L7.5 18l8.6-2.4z" transform="translate(171.682 3673.6)" style="fill:#fff;opacity:.5"/>
        <path data-name="mini star" d="m21 8.2 4.9 7.4 8.6 2.4-5.5 6.9.3 8.9-8.3-3.1-8.3 3.1.3-8.9L7.5 18l8.6-2.4z" transform="translate(37.61 3237.9)" style="fill:#fff;opacity:.5"/>
        <path data-name="mini star" d="m21 8.2 4.9 7.4 8.6 2.4-5.5 6.9.3 8.9-8.3-3.1-8.3 3.1.3-8.9L7.5 18l8.6-2.4z" transform="translate(266.721 3439.1)" style="fill:#fff;opacity:.5"/>
        <path data-name="mini star" d="m21 8.2 4.9 7.4 8.6 2.4-5.5 6.9.3 8.9-8.3-3.1-8.3 3.1.3-8.9L7.5 18l8.6-2.4z" transform="translate(51.11 3660.8)" style="fill:#fff;opacity:.5"/>
    </g>
</svg>
