<svg xmlns="http://www.w3.org/2000/svg" width="1744.5" height="3594.4" viewBox="0 0 1744.5 3594.4">
    <g data-name="Zvjezdice - grupirane _ 1920">
        <path data-name="mini star" d="m21 8.2 4.9 7.4 8.6 2.4-5.5 6.9.3 8.9-8.3-3.1-8.3 3.1.3-8.9L7.5 18l8.6-2.4z" transform="translate(1266 204.1)" style="fill:#fff;opacity:.5"/>
        <path data-name="mini star" d="m21 8.2 4.9 7.4 8.6 2.4-5.5 6.9.3 8.9-8.3-3.1-8.3 3.1.3-8.9L7.5 18l8.6-2.4z" transform="translate(1591.5 -8.2)" style="fill:#fff;opacity:.5"/>
        <path data-name="mini star" d="m21 8.2 4.9 7.4 8.6 2.4-5.5 6.9.3 8.9-8.3-3.1-8.3 3.1.3-8.9L7.5 18l8.6-2.4z" transform="translate(815.5 636.8)" style="fill:#fff;opacity:.5"/>
        <path data-name="mini star" d="m21 8.2 4.9 7.4 8.6 2.4-5.5 6.9.3 8.9-8.3-3.1-8.3 3.1.3-8.9L7.5 18l8.6-2.4z" transform="translate(55 352.8)" style="fill:#fff;opacity:.5"/>
        <path data-name="mini star" d="m21 8.2 4.9 7.4 8.6 2.4-5.5 6.9.3 8.9-8.3-3.1-8.3 3.1.3-8.9L7.5 18l8.6-2.4z" transform="translate(1266 877.6)" style="fill:#fff;opacity:.5"/>
        <path data-name="mini star" d="m21 8.2 4.9 7.4 8.6 2.4-5.5 6.9.3 8.9-8.3-3.1-8.3 3.1.3-8.9L7.5 18l8.6-2.4z" transform="translate(317.5 1127.6)" style="fill:#fff;opacity:.5"/>
        <path data-name="mini star" d="m21 8.2 4.9 7.4 8.6 2.4-5.5 6.9.3 8.9-8.3-3.1-8.3 3.1.3-8.9L7.5 18l8.6-2.4z" transform="translate(-7.5 1395.6)" style="fill:#fff;opacity:.5"/>
        <path data-name="mini star" d="m21 8.2 4.9 7.4 8.6 2.4-5.5 6.9.3 8.9-8.3-3.1-8.3 3.1.3-8.9L7.5 18l8.6-2.4z" transform="translate(1710 1361)" style="fill:#fff;opacity:.5"/>
        <path data-name="mini star" d="m21 8.2 4.9 7.4 8.6 2.4-5.5 6.9.3 8.9-8.3-3.1-8.3 3.1.3-8.9L7.5 18l8.6-2.4z" transform="translate(1075 1560.3)" style="fill:#fff;opacity:.5"/>
        <path data-name="mini star" d="m21 8.2 4.9 7.4 8.6 2.4-5.5 6.9.3 8.9-8.3-3.1-8.3 3.1.3-8.9L7.5 18l8.6-2.4z" transform="translate(55 1959.3)" style="fill:#fff;opacity:.5"/>
        <path data-name="mini star" d="m21 8.2 4.9 7.4 8.6 2.4-5.5 6.9.3 8.9-8.3-3.1-8.3 3.1.3-8.9L7.5 18l8.6-2.4z" transform="translate(613.5 2217.3)" style="fill:#fff;opacity:.5"/>
        <path data-name="mini star" d="m21 8.2 4.9 7.4 8.6 2.4-5.5 6.9.3 8.9-8.3-3.1-8.3 3.1.3-8.9L7.5 18l8.6-2.4z" transform="translate(960 1972.1)" style="fill:#fff;opacity:.5"/>
        <path data-name="mini star" d="m21 8.2 4.9 7.4 8.6 2.4-5.5 6.9.3 8.9-8.3-3.1-8.3 3.1.3-8.9L7.5 18l8.6-2.4z" transform="translate(1618 1906.3)" style="fill:#fff;opacity:.5"/>
        <path data-name="mini star" d="m21 8.2 4.9 7.4 8.6 2.4-5.5 6.9.3 8.9-8.3-3.1-8.3 3.1.3-8.9L7.5 18l8.6-2.4z" transform="translate(1299.5 2302.8)" style="fill:#fff;opacity:.5"/>
        <path data-name="mini star" d="m21 8.2 4.9 7.4 8.6 2.4-5.5 6.9.3 8.9-8.3-3.1-8.3 3.1.3-8.9L7.5 18l8.6-2.4z" transform="translate(718.16 2542.8)" style="fill:#fff;opacity:.5"/>
        <path data-name="mini star" d="m21 8.2 4.9 7.4 8.6 2.4-5.5 6.9.3 8.9-8.3-3.1-8.3 3.1.3-8.9L7.5 18l8.6-2.4z" transform="translate(304 2530)" style="fill:#fff;opacity:.5"/>
        <path data-name="mini star" d="m21 8.2 4.9 7.4 8.6 2.4-5.5 6.9.3 8.9-8.3-3.1-8.3 3.1.3-8.9L7.5 18l8.6-2.4z" transform="translate(957.5 3080.8)" style="fill:#fff;opacity:.5"/>
        <path data-name="mini star" d="m21 8.2 4.9 7.4 8.6 2.4-5.5 6.9.3 8.9-8.3-3.1-8.3 3.1.3-8.9L7.5 18l8.6-2.4z" transform="translate(1687 3093.6)" style="fill:#fff;opacity:.5"/>
        <path data-name="mini star" d="m21 8.2 4.9 7.4 8.6 2.4-5.5 6.9.3 8.9-8.3-3.1-8.3 3.1.3-8.9L7.5 18l8.6-2.4z" transform="translate(1058 3560.6)" style="fill:#fff;opacity:.5"/>
        <path data-name="mini star" d="m21 8.2 4.9 7.4 8.6 2.4-5.5 6.9.3 8.9-8.3-3.1-8.3 3.1.3-8.9L7.5 18l8.6-2.4z" transform="translate(11.5 3070.9)" style="fill:#fff;opacity:.5"/>
        <path data-name="mini star" d="m21 8.2 4.9 7.4 8.6 2.4-5.5 6.9.3 8.9-8.3-3.1-8.3 3.1.3-8.9L7.5 18l8.6-2.4z" transform="translate(315.5 3455.1)" style="fill:#fff;opacity:.5"/>
    </g>
</svg>
