<svg xmlns="http://www.w3.org/2000/svg" width="723" height="4776.6" viewBox="0 0 723 4776.6">
    <g data-name="Zvjezdice - grupirane _ 768">
        <path data-name="mini star" d="m21 8.2 4.9 7.4 8.6 2.4-5.5 6.9.3 8.9-8.3-3.1-8.3 3.1.3-8.9L7.5 18l8.6-2.4z" transform="translate(45.5 396.8)" style="fill:#fff;opacity:.5"/>
        <path data-name="mini star" d="m21 8.2 4.9 7.4 8.6 2.4-5.5 6.9.3 8.9-8.3-3.1-8.3 3.1.3-8.9L7.5 18l8.6-2.4z" transform="translate(633.5 748.8)" style="fill:#fff;opacity:.5"/>
        <path data-name="mini star" d="m21 8.2 4.9 7.4 8.6 2.4-5.5 6.9.3 8.9-8.3-3.1-8.3 3.1.3-8.9L7.5 18l8.6-2.4z" transform="translate(620 -8.2)" style="fill:#fff;opacity:.5"/>
        <path data-name="mini star" d="m21 8.2 4.9 7.4 8.6 2.4-5.5 6.9.3 8.9-8.3-3.1-8.3 3.1.3-8.9L7.5 18l8.6-2.4z" transform="translate(108 864.8)" style="fill:#fff;opacity:.5"/>
        <path data-name="mini star" d="m21 8.2 4.9 7.4 8.6 2.4-5.5 6.9.3 8.9-8.3-3.1-8.3 3.1.3-8.9L7.5 18l8.6-2.4z" transform="translate(364 1501.8)" style="fill:#fff;opacity:.5"/>
        <path data-name="mini star" d="m21 8.2 4.9 7.4 8.6 2.4-5.5 6.9.3 8.9-8.3-3.1-8.3 3.1.3-8.9L7.5 18l8.6-2.4z" transform="translate(94.5 1680.8)" style="fill:#fff;opacity:.5"/>
        <path data-name="mini star" d="m21 8.2 4.9 7.4 8.6 2.4-5.5 6.9.3 8.9-8.3-3.1-8.3 3.1.3-8.9L7.5 18l8.6-2.4z" transform="translate(593 1808.8)" style="fill:#fff;opacity:.5"/>
        <path data-name="mini star" d="m21 8.2 4.9 7.4 8.6 2.4-5.5 6.9.3 8.9-8.3-3.1-8.3 3.1.3-8.9L7.5 18l8.6-2.4z" transform="translate(94.5 2292.8)" style="fill:#fff;opacity:.5"/>
        <path data-name="mini star" d="m21 8.2 4.9 7.4 8.6 2.4-5.5 6.9.3 8.9-8.3-3.1-8.3 3.1.3-8.9L7.5 18l8.6-2.4z" transform="translate(454.5 2471.8)" style="fill:#fff;opacity:.5"/>
        <path data-name="mini star" d="m21 8.2 4.9 7.4 8.6 2.4-5.5 6.9.3 8.9-8.3-3.1-8.3 3.1.3-8.9L7.5 18l8.6-2.4z" transform="translate(154.5 2908.8)" style="fill:#fff;opacity:.5"/>
        <path data-name="mini star" d="m21 8.2 4.9 7.4 8.6 2.4-5.5 6.9.3 8.9-8.3-3.1-8.3 3.1.3-8.9L7.5 18l8.6-2.4z" transform="translate(579.5 2809.8)" style="fill:#fff;opacity:.5"/>
        <path data-name="mini star" d="m21 8.2 4.9 7.4 8.6 2.4-5.5 6.9.3 8.9-8.3-3.1-8.3 3.1.3-8.9L7.5 18l8.6-2.4z" transform="translate(688.5 3472.8)" style="fill:#fff;opacity:.5"/>
        <path data-name="mini star" d="m21 8.2 4.9 7.4 8.6 2.4-5.5 6.9.3 8.9-8.3-3.1-8.3 3.1.3-8.9L7.5 18l8.6-2.4z" transform="translate(-7.5 3571.8)" style="fill:#fff;opacity:.5"/>
        <path data-name="mini star" d="m21 8.2 4.9 7.4 8.6 2.4-5.5 6.9.3 8.9-8.3-3.1-8.3 3.1.3-8.9L7.5 18l8.6-2.4z" transform="translate(639.5 4115.8)" style="fill:#fff;opacity:.5"/>
        <path data-name="mini star" d="m21 8.2 4.9 7.4 8.6 2.4-5.5 6.9.3 8.9-8.3-3.1-8.3 3.1.3-8.9L7.5 18l8.6-2.4z" transform="translate(108 4154.8)" style="fill:#fff;opacity:.5"/>
        <path data-name="mini star" d="m21 8.2 4.9 7.4 8.6 2.4-5.5 6.9.3 8.9-8.3-3.1-8.3 3.1.3-8.9L7.5 18l8.6-2.4z" transform="translate(566 4742.8)" style="fill:#fff;opacity:.5"/>
        <path data-name="mini star" d="m21 8.2 4.9 7.4 8.6 2.4-5.5 6.9.3 8.9-8.3-3.1-8.3 3.1.3-8.9L7.5 18l8.6-2.4z" transform="translate(94.5 4643.8)" style="fill:#fff;opacity:.5"/>
    </g>
</svg>
